<?xml version="1.0" encoding="UTF-8" standalone="no"?>
<!DOCTYPE svg PUBLIC "-//W3C//DTD SVG 1.1//EN"
 "http://www.w3.org/Graphics/SVG/1.1/DTD/svg11.dtd">
<!-- Generated by graphviz version 2.40.1 (20161225.0304)
 -->
<!-- Title: dependencies Pages: 1 -->
<svg width="979pt" height="211pt"
 viewBox="0.00 0.00 979.00 211.00" xmlns="http://www.w3.org/2000/svg" xmlns:xlink="http://www.w3.org/1999/xlink">
<g id="graph0" class="graph" transform="scale(1 1) rotate(0) translate(4 207)">
<title>dependencies</title>
<polygon fill="#ffffff" stroke="transparent" points="-4,4 -4,-207 975,-207 975,4 -4,4"/>
<text text-anchor="start" x="464.5091" y="-42.4" font-family="sans-serif" font-weight="bold" font-size="14.00" fill="#000000">Legend</text>
<polygon fill="#ffffb3" stroke="transparent" points="251.5,-10 251.5,-30 271.5,-30 271.5,-10 251.5,-10"/>
<text text-anchor="start" x="275.129" y="-15.4" font-family="sans-serif" font-size="14.00" fill="#000000"> &#160;Declarations</text>
<polygon fill="#8dd3c7" stroke="transparent" points="364.5,-10 364.5,-30 384.5,-30 384.5,-10 364.5,-10"/>
<text text-anchor="start" x="388.2251" y="-15.4" font-family="sans-serif" font-size="14.00" fill="#000000"> &#160;Module</text>
<polygon fill="#80b1d3" stroke="transparent" points="450.5,-10 450.5,-30 470.5,-30 470.5,-10 450.5,-10"/>
<text text-anchor="start" x="474.2812" y="-15.4" font-family="sans-serif" font-size="14.00" fill="#000000"> &#160;Bootstrap</text>
<polygon fill="#fdb462" stroke="transparent" points="547.5,-10 547.5,-30 567.5,-30 567.5,-10 547.5,-10"/>
<text text-anchor="start" x="571.1732" y="-15.4" font-family="sans-serif" font-size="14.00" fill="#000000"> &#160;Providers</text>
<polygon fill="#fb8072" stroke="transparent" points="643.5,-10 643.5,-30 663.5,-30 663.5,-10 643.5,-10"/>
<text text-anchor="start" x="667.2258" y="-15.4" font-family="sans-serif" font-size="14.00" fill="#000000"> &#160;Exports</text>
<g id="clust1" class="cluster">
<title>cluster_AuthentificationModule</title>
<polygon fill="none" stroke="#000000" stroke-dasharray="1,5" points="8,-70 8,-195 963,-195 963,-70 8,-70"/>
</g>
<g id="clust2" class="cluster">
<title>cluster_AuthentificationModule_declarations</title>
<polygon fill="none" stroke="#000000" points="484,-78 484,-130 955,-130 955,-78 484,-78"/>
</g>
<g id="clust6" class="cluster">
<title>cluster_AuthentificationModule_imports</title>
<polygon fill="none" stroke="#000000" points="246,-78 246,-130 476,-130 476,-78 246,-78"/>
</g>
<g id="clust9" class="cluster">
<title>cluster_AuthentificationModule_providers</title>
<polygon fill="none" stroke="#000000" points="16,-78 16,-130 238,-130 238,-78 16,-78"/>
</g>
<!-- AddUserComponent -->
<g id="node1" class="node">
<title>AddUserComponent</title>
<polygon fill="#ffffb3" stroke="#000000" points="946.8655,-122 815.1345,-122 815.1345,-86 946.8655,-86 946.8655,-122"/>
<text text-anchor="middle" x="881" y="-99.8" font-family="Times,serif" font-size="14.00" fill="#000000">AddUserComponent</text>
</g>
<!-- AuthentificationModule -->
<g id="node4" class="node">
<title>AuthentificationModule</title>
<polygon fill="#8dd3c7" stroke="#000000" points="561.8047,-187 558.8047,-191 537.8047,-191 534.8047,-187 410.1953,-187 410.1953,-151 561.8047,-151 561.8047,-187"/>
<text text-anchor="middle" x="486" y="-164.8" font-family="Times,serif" font-size="14.00" fill="#000000">AuthentificationModule</text>
</g>
<!-- AddUserComponent&#45;&gt;AuthentificationModule -->
<g id="edge1" class="edge">
<title>AddUserComponent&#45;&gt;AuthentificationModule</title>
<path fill="none" stroke="#000000" d="M881,-122.2843C881,-143.3211 881,-175 881,-175 881,-175 571.6926,-175 571.6926,-175"/>
<polygon fill="#000000" stroke="#000000" points="571.6926,-171.5001 561.6926,-175 571.6926,-178.5001 571.6926,-171.5001"/>
</g>
<!-- AuthentificationComponent -->
<g id="node2" class="node">
<title>AuthentificationComponent</title>
<polygon fill="#ffffb3" stroke="#000000" points="797.587,-122 624.413,-122 624.413,-86 797.587,-86 797.587,-122"/>
<text text-anchor="middle" x="711" y="-99.8" font-family="Times,serif" font-size="14.00" fill="#000000">AuthentificationComponent</text>
</g>
<!-- AuthentificationComponent&#45;&gt;AuthentificationModule -->
<g id="edge2" class="edge">
<title>AuthentificationComponent&#45;&gt;AuthentificationModule</title>
<path fill="none" stroke="#000000" d="M711,-122.0225C711,-139.3734 711,-163 711,-163 711,-163 571.8611,-163 571.8611,-163"/>
<polygon fill="#000000" stroke="#000000" points="571.8611,-159.5001 561.8611,-163 571.861,-166.5001 571.8611,-159.5001"/>
</g>
<!-- LoginComponent -->
<g id="node3" class="node">
<title>LoginComponent</title>
<polygon fill="#ffffb3" stroke="#000000" points="606.2758,-122 491.7242,-122 491.7242,-86 606.2758,-86 606.2758,-122"/>
<text text-anchor="middle" x="549" y="-99.8" font-family="Times,serif" font-size="14.00" fill="#000000">LoginComponent</text>
</g>
<!-- LoginComponent&#45;&gt;AuthentificationModule -->
<g id="edge3" class="edge">
<title>LoginComponent&#45;&gt;AuthentificationModule</title>
<path fill="none" stroke="#000000" d="M526.6322,-122.1061C526.6322,-122.1061 526.6322,-140.991 526.6322,-140.991"/>
<polygon fill="#000000" stroke="#000000" points="523.1323,-140.9909 526.6322,-150.991 530.1323,-140.991 523.1323,-140.9909"/>
</g>
<!-- FormModule -->
<g id="node5" class="node">
<title>FormModule</title>
<polygon fill="#8dd3c7" stroke="#000000" points="467.8837,-122 464.8837,-126 443.8837,-126 440.8837,-122 378.1163,-122 378.1163,-86 467.8837,-86 467.8837,-122"/>
<text text-anchor="middle" x="423" y="-99.8" font-family="Times,serif" font-size="14.00" fill="#000000">FormModule</text>
</g>
<!-- FormModule&#45;&gt;AuthentificationModule -->
<g id="edge4" class="edge">
<title>FormModule&#45;&gt;AuthentificationModule</title>
<path fill="none" stroke="#000000" d="M439.1448,-122.1061C439.1448,-122.1061 439.1448,-140.991 439.1448,-140.991"/>
<polygon fill="#000000" stroke="#000000" points="435.6449,-140.9909 439.1448,-150.991 442.6449,-140.991 435.6449,-140.9909"/>
</g>
<!-- MaterialModule -->
<g id="node6" class="node">
<title>MaterialModule</title>
<polygon fill="#8dd3c7" stroke="#000000" points="360.4706,-122 357.4706,-126 336.4706,-126 333.4706,-122 253.5294,-122 253.5294,-86 360.4706,-86 360.4706,-122"/>
<text text-anchor="middle" x="307" y="-99.8" font-family="Times,serif" font-size="14.00" fill="#000000">MaterialModule</text>
</g>
<!-- MaterialModule&#45;&gt;AuthentificationModule -->
<g id="edge5" class="edge">
<title>MaterialModule&#45;&gt;AuthentificationModule</title>
<path fill="none" stroke="#000000" d="M307,-122.0225C307,-139.3734 307,-163 307,-163 307,-163 400.3473,-163 400.3473,-163"/>
<polygon fill="#000000" stroke="#000000" points="400.3474,-166.5001 410.3473,-163 400.3473,-159.5001 400.3474,-166.5001"/>
</g>
<!-- AuthentificationService -->
<g id="node7" class="node">
<title>AuthentificationService</title>
<ellipse fill="#fdb462" stroke="#000000" cx="127" cy="-104" rx="103.0655" ry="18"/>
<text text-anchor="middle" x="127" y="-99.8" font-family="Times,serif" font-size="14.00" fill="#000000">AuthentificationService</text>
</g>
<!-- AuthentificationService&#45;&gt;AuthentificationModule -->
<g id="edge6" class="edge">
<title>AuthentificationService&#45;&gt;AuthentificationModule</title>
<path fill="none" stroke="#000000" d="M127,-122.2843C127,-143.3211 127,-175 127,-175 127,-175 400.304,-175 400.304,-175"/>
<polygon fill="#000000" stroke="#000000" points="400.304,-178.5001 410.304,-175 400.304,-171.5001 400.304,-178.5001"/>
</g>
</g>
</svg>
