<?xml version="1.0" encoding="UTF-8" standalone="no"?>
<!DOCTYPE svg PUBLIC "-//W3C//DTD SVG 1.1//EN"
 "http://www.w3.org/Graphics/SVG/1.1/DTD/svg11.dtd">
<!-- Generated by graphviz version 2.40.1 (20161225.0304)
 -->
<!-- Title: dependencies Pages: 1 -->
<svg width="1110pt" height="284pt"
 viewBox="0.00 0.00 1110.00 284.00" xmlns="http://www.w3.org/2000/svg" xmlns:xlink="http://www.w3.org/1999/xlink">
<g id="graph0" class="graph" transform="scale(1 1) rotate(0) translate(4 280)">
<title>dependencies</title>
<polygon fill="#ffffff" stroke="transparent" points="-4,4 -4,-280 1106,-280 1106,4 -4,4"/>
<text text-anchor="start" x="530.0091" y="-42.4" font-family="sans-serif" font-weight="bold" font-size="14.00" fill="#000000">Legend</text>
<polygon fill="#ffffb3" stroke="transparent" points="317,-10 317,-30 337,-30 337,-10 317,-10"/>
<text text-anchor="start" x="340.629" y="-15.4" font-family="sans-serif" font-size="14.00" fill="#000000"> &#160;Declarations</text>
<polygon fill="#8dd3c7" stroke="transparent" points="430,-10 430,-30 450,-30 450,-10 430,-10"/>
<text text-anchor="start" x="453.7251" y="-15.4" font-family="sans-serif" font-size="14.00" fill="#000000"> &#160;Module</text>
<polygon fill="#80b1d3" stroke="transparent" points="516,-10 516,-30 536,-30 536,-10 516,-10"/>
<text text-anchor="start" x="539.7812" y="-15.4" font-family="sans-serif" font-size="14.00" fill="#000000"> &#160;Bootstrap</text>
<polygon fill="#fdb462" stroke="transparent" points="613,-10 613,-30 633,-30 633,-10 613,-10"/>
<text text-anchor="start" x="636.6732" y="-15.4" font-family="sans-serif" font-size="14.00" fill="#000000"> &#160;Providers</text>
<polygon fill="#fb8072" stroke="transparent" points="709,-10 709,-30 729,-30 729,-10 709,-10"/>
<text text-anchor="start" x="732.7258" y="-15.4" font-family="sans-serif" font-size="14.00" fill="#000000"> &#160;Exports</text>
<g id="clust1" class="cluster">
<title>cluster_AppModule</title>
<polygon fill="none" stroke="#000000" stroke-dasharray="1,5" points="8,-70 8,-268 1094,-268 1094,-70 8,-70"/>
</g>
<g id="clust2" class="cluster">
<title>cluster_AppModule_declarations</title>
<polygon fill="none" stroke="#000000" points="528,-78 528,-130 1086,-130 1086,-78 528,-78"/>
</g>
<g id="clust7" class="cluster">
<title>cluster_AppModule_imports</title>
<polygon fill="none" stroke="#000000" points="16,-78 16,-130 520,-130 520,-78 16,-78"/>
</g>
<g id="clust9" class="cluster">
<title>cluster_AppModule_bootstrap</title>
<polygon fill="none" stroke="#000000" points="459,-208 459,-260 583,-260 583,-208 459,-208"/>
</g>
<!-- AppComponent -->
<g id="node1" class="node">
<title>AppComponent</title>
<polygon fill="#ffffb3" stroke="#000000" points="1077.9399,-122 972.0601,-122 972.0601,-86 1077.9399,-86 1077.9399,-122"/>
<text text-anchor="middle" x="1025" y="-99.8" font-family="Times,serif" font-size="14.00" fill="#000000">AppComponent</text>
</g>
<!-- AppModule -->
<g id="node5" class="node">
<title>AppModule</title>
<polygon fill="#8dd3c7" stroke="#000000" points="562.6571,-187 559.6571,-191 538.6571,-191 535.6571,-187 479.3429,-187 479.3429,-151 562.6571,-151 562.6571,-187"/>
<text text-anchor="middle" x="521" y="-164.8" font-family="Times,serif" font-size="14.00" fill="#000000">AppModule</text>
</g>
<!-- AppComponent&#45;&gt;AppModule -->
<g id="edge1" class="edge">
<title>AppComponent&#45;&gt;AppModule</title>
<path fill="none" stroke="#000000" d="M1025,-122.2921C1025,-144.2057 1025,-178 1025,-178 1025,-178 572.6732,-178 572.6732,-178"/>
<polygon fill="#000000" stroke="#000000" points="572.6733,-174.5001 562.6732,-178 572.6732,-181.5001 572.6733,-174.5001"/>
</g>
<!-- FooterComponent -->
<g id="node2" class="node">
<title>FooterComponent</title>
<polygon fill="#ffffb3" stroke="#000000" points="953.8809,-122 836.1191,-122 836.1191,-86 953.8809,-86 953.8809,-122"/>
<text text-anchor="middle" x="895" y="-99.8" font-family="Times,serif" font-size="14.00" fill="#000000">FooterComponent</text>
</g>
<!-- FooterComponent&#45;&gt;AppModule -->
<g id="edge2" class="edge">
<title>FooterComponent&#45;&gt;AppModule</title>
<path fill="none" stroke="#000000" d="M895,-122.1061C895,-141.3391 895,-169 895,-169 895,-169 572.8139,-169 572.8139,-169"/>
<polygon fill="#000000" stroke="#000000" points="572.8139,-165.5001 562.8139,-169 572.8139,-172.5001 572.8139,-165.5001"/>
</g>
<!-- HeaderComponent -->
<g id="node3" class="node">
<title>HeaderComponent</title>
<polygon fill="#ffffb3" stroke="#000000" points="817.7437,-122 696.2563,-122 696.2563,-86 817.7437,-86 817.7437,-122"/>
<text text-anchor="middle" x="757" y="-99.8" font-family="Times,serif" font-size="14.00" fill="#000000">HeaderComponent</text>
</g>
<!-- HeaderComponent&#45;&gt;AppModule -->
<g id="edge3" class="edge">
<title>HeaderComponent&#45;&gt;AppModule</title>
<path fill="none" stroke="#000000" d="M757,-122.027C757,-138.3976 757,-160 757,-160 757,-160 572.9201,-160 572.9201,-160"/>
<polygon fill="#000000" stroke="#000000" points="572.9202,-156.5001 562.9201,-160 572.9201,-163.5001 572.9202,-156.5001"/>
</g>
<!-- HomePageComponent -->
<g id="node4" class="node">
<title>HomePageComponent</title>
<polygon fill="#ffffb3" stroke="#000000" points="678.2562,-122 535.7438,-122 535.7438,-86 678.2562,-86 678.2562,-122"/>
<text text-anchor="middle" x="607" y="-99.8" font-family="Times,serif" font-size="14.00" fill="#000000">HomePageComponent</text>
</g>
<!-- HomePageComponent&#45;&gt;AppModule -->
<g id="edge4" class="edge">
<title>HomePageComponent&#45;&gt;AppModule</title>
<path fill="none" stroke="#000000" d="M549.2251,-122.1061C549.2251,-122.1061 549.2251,-140.991 549.2251,-140.991"/>
<polygon fill="#000000" stroke="#000000" points="545.7252,-140.9909 549.2251,-150.991 552.7252,-140.991 545.7252,-140.9909"/>
</g>
<!-- AppComponent  -->
<g id="node10" class="node">
<title>AppComponent </title>
<polygon fill="#80b1d3" stroke="#000000" points="575.439,-252 466.561,-252 466.561,-216 575.439,-216 575.439,-252"/>
<text text-anchor="middle" x="521" y="-229.8" font-family="Times,serif" font-size="14.00" fill="#000000">AppComponent </text>
</g>
<!-- AppModule&#45;&gt;AppComponent  -->
<g id="edge9" class="edge">
<title>AppModule&#45;&gt;AppComponent </title>
<path fill="none" stroke="#000000" stroke-dasharray="1,5" d="M521,-187.1061C521,-187.1061 521,-205.991 521,-205.991"/>
<polygon fill="#000000" stroke="#000000" points="517.5001,-205.9909 521,-215.991 524.5001,-205.991 517.5001,-205.9909"/>
</g>
<!-- AuthentificationModule -->
<g id="node6" class="node">
<title>AuthentificationModule</title>
<polygon fill="#8dd3c7" stroke="#000000" points="511.8047,-122 508.8047,-126 487.8047,-126 484.8047,-122 360.1953,-122 360.1953,-86 511.8047,-86 511.8047,-122"/>
<text text-anchor="middle" x="436" y="-99.8" font-family="Times,serif" font-size="14.00" fill="#000000">AuthentificationModule</text>
</g>
<!-- AuthentificationModule&#45;&gt;AppModule -->
<g id="edge5" class="edge">
<title>AuthentificationModule&#45;&gt;AppModule</title>
<path fill="none" stroke="#000000" d="M495.412,-122.1061C495.412,-122.1061 495.412,-140.991 495.412,-140.991"/>
<polygon fill="#000000" stroke="#000000" points="491.9121,-140.9909 495.412,-150.991 498.9121,-140.991 491.9121,-140.9909"/>
</g>
<!-- ChatModule -->
<g id="node7" class="node">
<title>ChatModule</title>
<polygon fill="#8dd3c7" stroke="#000000" points="341.9916,-122 338.9916,-126 317.9916,-126 314.9916,-122 256.0084,-122 256.0084,-86 341.9916,-86 341.9916,-122"/>
<text text-anchor="middle" x="299" y="-99.8" font-family="Times,serif" font-size="14.00" fill="#000000">ChatModule</text>
</g>
<!-- ChatModule&#45;&gt;AppModule -->
<g id="edge6" class="edge">
<title>ChatModule&#45;&gt;AppModule</title>
<path fill="none" stroke="#000000" d="M299,-122.027C299,-138.3976 299,-160 299,-160 299,-160 469.2435,-160 469.2435,-160"/>
<polygon fill="#000000" stroke="#000000" points="469.2435,-163.5001 479.2435,-160 469.2435,-156.5001 469.2435,-163.5001"/>
</g>
<!-- FormModule -->
<g id="node8" class="node">
<title>FormModule</title>
<polygon fill="#8dd3c7" stroke="#000000" points="237.8837,-122 234.8837,-126 213.8837,-126 210.8837,-122 148.1163,-122 148.1163,-86 237.8837,-86 237.8837,-122"/>
<text text-anchor="middle" x="193" y="-99.8" font-family="Times,serif" font-size="14.00" fill="#000000">FormModule</text>
</g>
<!-- FormModule&#45;&gt;AppModule -->
<g id="edge7" class="edge">
<title>FormModule&#45;&gt;AppModule</title>
<path fill="none" stroke="#000000" d="M193,-122.1061C193,-141.3391 193,-169 193,-169 193,-169 469.1254,-169 469.1254,-169"/>
<polygon fill="#000000" stroke="#000000" points="469.1254,-172.5001 479.1254,-169 469.1254,-165.5001 469.1254,-172.5001"/>
</g>
<!-- MaterialModule -->
<g id="node9" class="node">
<title>MaterialModule</title>
<polygon fill="#8dd3c7" stroke="#000000" points="130.4706,-122 127.4706,-126 106.4706,-126 103.4706,-122 23.5294,-122 23.5294,-86 130.4706,-86 130.4706,-122"/>
<text text-anchor="middle" x="77" y="-99.8" font-family="Times,serif" font-size="14.00" fill="#000000">MaterialModule</text>
</g>
<!-- MaterialModule&#45;&gt;AppModule -->
<g id="edge8" class="edge">
<title>MaterialModule&#45;&gt;AppModule</title>
<path fill="none" stroke="#000000" d="M77,-122.2921C77,-144.2057 77,-178 77,-178 77,-178 469.2296,-178 469.2296,-178"/>
<polygon fill="#000000" stroke="#000000" points="469.2296,-181.5001 479.2296,-178 469.2295,-174.5001 469.2296,-181.5001"/>
</g>
</g>
</svg>
