<?xml version="1.0" encoding="UTF-8" standalone="no"?>
<!DOCTYPE svg PUBLIC "-//W3C//DTD SVG 1.1//EN"
 "http://www.w3.org/Graphics/SVG/1.1/DTD/svg11.dtd">
<!-- Generated by graphviz version 2.40.1 (20161225.0304)
 -->
<!-- Title: dependencies Pages: 1 -->
<svg width="1006pt" height="284pt"
 viewBox="0.00 0.00 1006.00 284.00" xmlns="http://www.w3.org/2000/svg" xmlns:xlink="http://www.w3.org/1999/xlink">
<g id="graph0" class="graph" transform="scale(1 1) rotate(0) translate(4 280)">
<title>dependencies</title>
<polygon fill="#ffffff" stroke="transparent" points="-4,4 -4,-280 1002,-280 1002,4 -4,4"/>
<text text-anchor="start" x="478.0091" y="-42.4" font-family="sans-serif" font-weight="bold" font-size="14.00" fill="#000000">Legend</text>
<polygon fill="#ffffb3" stroke="transparent" points="265,-10 265,-30 285,-30 285,-10 265,-10"/>
<text text-anchor="start" x="288.629" y="-15.4" font-family="sans-serif" font-size="14.00" fill="#000000"> &#160;Declarations</text>
<polygon fill="#8dd3c7" stroke="transparent" points="378,-10 378,-30 398,-30 398,-10 378,-10"/>
<text text-anchor="start" x="401.7251" y="-15.4" font-family="sans-serif" font-size="14.00" fill="#000000"> &#160;Module</text>
<polygon fill="#80b1d3" stroke="transparent" points="464,-10 464,-30 484,-30 484,-10 464,-10"/>
<text text-anchor="start" x="487.7812" y="-15.4" font-family="sans-serif" font-size="14.00" fill="#000000"> &#160;Bootstrap</text>
<polygon fill="#fdb462" stroke="transparent" points="561,-10 561,-30 581,-30 581,-10 561,-10"/>
<text text-anchor="start" x="584.6732" y="-15.4" font-family="sans-serif" font-size="14.00" fill="#000000"> &#160;Providers</text>
<polygon fill="#fb8072" stroke="transparent" points="657,-10 657,-30 677,-30 677,-10 657,-10"/>
<text text-anchor="start" x="680.7258" y="-15.4" font-family="sans-serif" font-size="14.00" fill="#000000"> &#160;Exports</text>
<g id="clust1" class="cluster">
<title>cluster_AppModule</title>
<polygon fill="none" stroke="#000000" stroke-dasharray="1,5" points="8,-70 8,-268 990,-268 990,-70 8,-70"/>
</g>
<g id="clust2" class="cluster">
<title>cluster_AppModule_declarations</title>
<polygon fill="none" stroke="#000000" points="424,-78 424,-130 982,-130 982,-78 424,-78"/>
</g>
<g id="clust7" class="cluster">
<title>cluster_AppModule_imports</title>
<polygon fill="none" stroke="#000000" points="16,-78 16,-130 416,-130 416,-78 16,-78"/>
</g>
<g id="clust9" class="cluster">
<title>cluster_AppModule_bootstrap</title>
<polygon fill="none" stroke="#000000" points="441,-208 441,-260 565,-260 565,-208 441,-208"/>
</g>
<!-- AppComponent -->
<g id="node1" class="node">
<title>AppComponent</title>
<polygon fill="#ffffb3" stroke="#000000" points="973.9399,-122 868.0601,-122 868.0601,-86 973.9399,-86 973.9399,-122"/>
<text text-anchor="middle" x="921" y="-99.8" font-family="Times,serif" font-size="14.00" fill="#000000">AppComponent</text>
</g>
<!-- AppModule -->
<g id="node5" class="node">
<title>AppModule</title>
<polygon fill="#8dd3c7" stroke="#000000" points="544.6571,-187 541.6571,-191 520.6571,-191 517.6571,-187 461.3429,-187 461.3429,-151 544.6571,-151 544.6571,-187"/>
<text text-anchor="middle" x="503" y="-164.8" font-family="Times,serif" font-size="14.00" fill="#000000">AppModule</text>
</g>
<!-- AppComponent&#45;&gt;AppModule -->
<g id="edge1" class="edge">
<title>AppComponent&#45;&gt;AppModule</title>
<path fill="none" stroke="#000000" d="M921,-122.2921C921,-144.2057 921,-178 921,-178 921,-178 554.9933,-178 554.9933,-178"/>
<polygon fill="#000000" stroke="#000000" points="554.9933,-174.5001 544.9933,-178 554.9932,-181.5001 554.9933,-174.5001"/>
</g>
<!-- FooterComponent -->
<g id="node2" class="node">
<title>FooterComponent</title>
<polygon fill="#ffffb3" stroke="#000000" points="849.8809,-122 732.1191,-122 732.1191,-86 849.8809,-86 849.8809,-122"/>
<text text-anchor="middle" x="791" y="-99.8" font-family="Times,serif" font-size="14.00" fill="#000000">FooterComponent</text>
</g>
<!-- FooterComponent&#45;&gt;AppModule -->
<g id="edge2" class="edge">
<title>FooterComponent&#45;&gt;AppModule</title>
<path fill="none" stroke="#000000" d="M791,-122.1061C791,-141.3391 791,-169 791,-169 791,-169 554.8777,-169 554.8777,-169"/>
<polygon fill="#000000" stroke="#000000" points="554.8777,-165.5001 544.8777,-169 554.8776,-172.5001 554.8777,-165.5001"/>
</g>
<!-- HeaderComponent -->
<g id="node3" class="node">
<title>HeaderComponent</title>
<polygon fill="#ffffb3" stroke="#000000" points="713.7437,-122 592.2563,-122 592.2563,-86 713.7437,-86 713.7437,-122"/>
<text text-anchor="middle" x="653" y="-99.8" font-family="Times,serif" font-size="14.00" fill="#000000">HeaderComponent</text>
</g>
<!-- HeaderComponent&#45;&gt;AppModule -->
<g id="edge3" class="edge">
<title>HeaderComponent&#45;&gt;AppModule</title>
<path fill="none" stroke="#000000" d="M653,-122.027C653,-138.3976 653,-160 653,-160 653,-160 554.7834,-160 554.7834,-160"/>
<polygon fill="#000000" stroke="#000000" points="554.7834,-156.5001 544.7834,-160 554.7833,-163.5001 554.7834,-156.5001"/>
</g>
<!-- HomePageComponent -->
<g id="node4" class="node">
<title>HomePageComponent</title>
<polygon fill="#ffffb3" stroke="#000000" points="574.2562,-122 431.7438,-122 431.7438,-86 574.2562,-86 574.2562,-122"/>
<text text-anchor="middle" x="503" y="-99.8" font-family="Times,serif" font-size="14.00" fill="#000000">HomePageComponent</text>
</g>
<!-- HomePageComponent&#45;&gt;AppModule -->
<g id="edge4" class="edge">
<title>HomePageComponent&#45;&gt;AppModule</title>
<path fill="none" stroke="#000000" d="M503,-122.1061C503,-122.1061 503,-140.991 503,-140.991"/>
<polygon fill="#000000" stroke="#000000" points="499.5001,-140.9909 503,-150.991 506.5001,-140.991 499.5001,-140.9909"/>
</g>
<!-- AppComponent  -->
<g id="node9" class="node">
<title>AppComponent </title>
<polygon fill="#80b1d3" stroke="#000000" points="557.439,-252 448.561,-252 448.561,-216 557.439,-216 557.439,-252"/>
<text text-anchor="middle" x="503" y="-229.8" font-family="Times,serif" font-size="14.00" fill="#000000">AppComponent </text>
</g>
<!-- AppModule&#45;&gt;AppComponent  -->
<g id="edge8" class="edge">
<title>AppModule&#45;&gt;AppComponent </title>
<path fill="none" stroke="#000000" stroke-dasharray="1,5" d="M503,-187.1061C503,-187.1061 503,-205.991 503,-205.991"/>
<polygon fill="#000000" stroke="#000000" points="499.5001,-205.9909 503,-215.991 506.5001,-205.991 499.5001,-205.9909"/>
</g>
<!-- AuthentificationModule -->
<g id="node6" class="node">
<title>AuthentificationModule</title>
<polygon fill="#8dd3c7" stroke="#000000" points="407.8047,-122 404.8047,-126 383.8047,-126 380.8047,-122 256.1953,-122 256.1953,-86 407.8047,-86 407.8047,-122"/>
<text text-anchor="middle" x="332" y="-99.8" font-family="Times,serif" font-size="14.00" fill="#000000">AuthentificationModule</text>
</g>
<!-- AuthentificationModule&#45;&gt;AppModule -->
<g id="edge5" class="edge">
<title>AuthentificationModule&#45;&gt;AppModule</title>
<path fill="none" stroke="#000000" d="M332,-122.027C332,-138.3976 332,-160 332,-160 332,-160 451.1687,-160 451.1687,-160"/>
<polygon fill="#000000" stroke="#000000" points="451.1687,-163.5001 461.1687,-160 451.1687,-156.5001 451.1687,-163.5001"/>
</g>
<!-- FormModule -->
<g id="node7" class="node">
<title>FormModule</title>
<polygon fill="#8dd3c7" stroke="#000000" points="237.8837,-122 234.8837,-126 213.8837,-126 210.8837,-122 148.1163,-122 148.1163,-86 237.8837,-86 237.8837,-122"/>
<text text-anchor="middle" x="193" y="-99.8" font-family="Times,serif" font-size="14.00" fill="#000000">FormModule</text>
</g>
<!-- FormModule&#45;&gt;AppModule -->
<g id="edge6" class="edge">
<title>FormModule&#45;&gt;AppModule</title>
<path fill="none" stroke="#000000" d="M193,-122.1061C193,-141.3391 193,-169 193,-169 193,-169 451.192,-169 451.192,-169"/>
<polygon fill="#000000" stroke="#000000" points="451.1921,-172.5001 461.192,-169 451.192,-165.5001 451.1921,-172.5001"/>
</g>
<!-- MaterialModule -->
<g id="node8" class="node">
<title>MaterialModule</title>
<polygon fill="#8dd3c7" stroke="#000000" points="130.4706,-122 127.4706,-126 106.4706,-126 103.4706,-122 23.5294,-122 23.5294,-86 130.4706,-86 130.4706,-122"/>
<text text-anchor="middle" x="77" y="-99.8" font-family="Times,serif" font-size="14.00" fill="#000000">MaterialModule</text>
</g>
<!-- MaterialModule&#45;&gt;AppModule -->
<g id="edge7" class="edge">
<title>MaterialModule&#45;&gt;AppModule</title>
<path fill="none" stroke="#000000" d="M77,-122.2921C77,-144.2057 77,-178 77,-178 77,-178 450.9876,-178 450.9876,-178"/>
<polygon fill="#000000" stroke="#000000" points="450.9877,-181.5001 460.9876,-178 450.9876,-174.5001 450.9877,-181.5001"/>
</g>
</g>
</svg>
