<?xml version="1.0" encoding="UTF-8" standalone="no"?>
<!DOCTYPE svg PUBLIC "-//W3C//DTD SVG 1.1//EN"
 "http://www.w3.org/Graphics/SVG/1.1/DTD/svg11.dtd">
<!-- Generated by graphviz version 2.40.1 (20161225.0304)
 -->
<!-- Title: dependencies Pages: 1 -->
<svg width="1561pt" height="352pt"
 viewBox="0.00 0.00 1561.00 352.00" xmlns="http://www.w3.org/2000/svg" xmlns:xlink="http://www.w3.org/1999/xlink">
<g id="graph0" class="graph" transform="scale(1 1) rotate(0) translate(4 348)">
<title>dependencies</title>
<polygon fill="#ffffff" stroke="transparent" points="-4,4 -4,-348 1557,-348 1557,4 -4,4"/>
<text text-anchor="start" x="755.5091" y="-42.4" font-family="sans-serif" font-weight="bold" font-size="14.00" fill="#000000">Legend</text>
<polygon fill="#ffffb3" stroke="transparent" points="542.5,-10 542.5,-30 562.5,-30 562.5,-10 542.5,-10"/>
<text text-anchor="start" x="566.129" y="-15.4" font-family="sans-serif" font-size="14.00" fill="#000000"> &#160;Declarations</text>
<polygon fill="#8dd3c7" stroke="transparent" points="655.5,-10 655.5,-30 675.5,-30 675.5,-10 655.5,-10"/>
<text text-anchor="start" x="679.2251" y="-15.4" font-family="sans-serif" font-size="14.00" fill="#000000"> &#160;Module</text>
<polygon fill="#80b1d3" stroke="transparent" points="741.5,-10 741.5,-30 761.5,-30 761.5,-10 741.5,-10"/>
<text text-anchor="start" x="765.2812" y="-15.4" font-family="sans-serif" font-size="14.00" fill="#000000"> &#160;Bootstrap</text>
<polygon fill="#fdb462" stroke="transparent" points="838.5,-10 838.5,-30 858.5,-30 858.5,-10 838.5,-10"/>
<text text-anchor="start" x="862.1732" y="-15.4" font-family="sans-serif" font-size="14.00" fill="#000000"> &#160;Providers</text>
<polygon fill="#fb8072" stroke="transparent" points="934.5,-10 934.5,-30 954.5,-30 954.5,-10 934.5,-10"/>
<text text-anchor="start" x="958.2258" y="-15.4" font-family="sans-serif" font-size="14.00" fill="#000000"> &#160;Exports</text>
<g id="clust1" class="cluster">
<title>cluster_AppModule</title>
<polygon fill="none" stroke="#000000" stroke-dasharray="1,5" points="8,-70 8,-336 820,-336 820,-70 8,-70"/>
</g>
<g id="clust2" class="cluster">
<title>cluster_AppModule_declarations</title>
<polygon fill="none" stroke="#000000" points="254,-146 254,-198 812,-198 812,-146 254,-146"/>
</g>
<g id="clust7" class="cluster">
<title>cluster_AppModule_imports</title>
<polygon fill="none" stroke="#000000" points="16,-78 16,-198 246,-198 246,-78 16,-78"/>
</g>
<g id="clust9" class="cluster">
<title>cluster_AppModule_bootstrap</title>
<polygon fill="none" stroke="#000000" points="259,-276 259,-328 383,-328 383,-276 259,-276"/>
</g>
<g id="clust11" class="cluster">
<title>cluster_AuthentificationModule</title>
<polygon fill="none" stroke="#000000" stroke-dasharray="1,5" points="828,-70 828,-138 1545,-138 1545,-70 828,-70"/>
</g>
<g id="clust12" class="cluster">
<title>cluster_AuthentificationModule_declarations</title>
<polygon fill="none" stroke="#000000" points="1066,-78 1066,-130 1537,-130 1537,-78 1066,-78"/>
</g>
<g id="clust19" class="cluster">
<title>cluster_AuthentificationModule_providers</title>
<polygon fill="none" stroke="#000000" points="836,-78 836,-130 1058,-130 1058,-78 836,-78"/>
</g>
<!-- AppComponent -->
<g id="node1" class="node">
<title>AppComponent</title>
<polygon fill="#ffffb3" stroke="#000000" points="503.9399,-190 398.0601,-190 398.0601,-154 503.9399,-154 503.9399,-190"/>
<text text-anchor="middle" x="451" y="-167.8" font-family="Times,serif" font-size="14.00" fill="#000000">AppComponent</text>
</g>
<!-- AppModule -->
<g id="node5" class="node">
<title>AppModule</title>
<polygon fill="#8dd3c7" stroke="#000000" points="362.6571,-255 359.6571,-259 338.6571,-259 335.6571,-255 279.3429,-255 279.3429,-219 362.6571,-219 362.6571,-255"/>
<text text-anchor="middle" x="321" y="-232.8" font-family="Times,serif" font-size="14.00" fill="#000000">AppModule</text>
</g>
<!-- AppComponent&#45;&gt;AppModule -->
<g id="edge1" class="edge">
<title>AppComponent&#45;&gt;AppModule</title>
<path fill="none" stroke="#000000" d="M451,-190.027C451,-206.3976 451,-228 451,-228 451,-228 372.8484,-228 372.8484,-228"/>
<polygon fill="#000000" stroke="#000000" points="372.8484,-224.5001 362.8484,-228 372.8484,-231.5001 372.8484,-224.5001"/>
</g>
<!-- FooterComponent -->
<g id="node2" class="node">
<title>FooterComponent</title>
<polygon fill="#ffffb3" stroke="#000000" points="379.8809,-190 262.1191,-190 262.1191,-154 379.8809,-154 379.8809,-190"/>
<text text-anchor="middle" x="321" y="-167.8" font-family="Times,serif" font-size="14.00" fill="#000000">FooterComponent</text>
</g>
<!-- FooterComponent&#45;&gt;AppModule -->
<g id="edge2" class="edge">
<title>FooterComponent&#45;&gt;AppModule</title>
<path fill="none" stroke="#000000" d="M321,-190.1061C321,-190.1061 321,-208.991 321,-208.991"/>
<polygon fill="#000000" stroke="#000000" points="317.5001,-208.9909 321,-218.991 324.5001,-208.991 317.5001,-208.9909"/>
</g>
<!-- HeaderComponent -->
<g id="node3" class="node">
<title>HeaderComponent</title>
<polygon fill="#ffffb3" stroke="#000000" points="803.7437,-190 682.2563,-190 682.2563,-154 803.7437,-154 803.7437,-190"/>
<text text-anchor="middle" x="743" y="-167.8" font-family="Times,serif" font-size="14.00" fill="#000000">HeaderComponent</text>
</g>
<!-- HeaderComponent&#45;&gt;AppModule -->
<g id="edge3" class="edge">
<title>HeaderComponent&#45;&gt;AppModule</title>
<path fill="none" stroke="#000000" d="M743,-190.2921C743,-212.2057 743,-246 743,-246 743,-246 373.0058,-246 373.0058,-246"/>
<polygon fill="#000000" stroke="#000000" points="373.0058,-242.5001 363.0058,-246 373.0057,-249.5001 373.0058,-242.5001"/>
</g>
<!-- HomePageComponent -->
<g id="node4" class="node">
<title>HomePageComponent</title>
<polygon fill="#ffffb3" stroke="#000000" points="664.2562,-190 521.7438,-190 521.7438,-154 664.2562,-154 664.2562,-190"/>
<text text-anchor="middle" x="593" y="-167.8" font-family="Times,serif" font-size="14.00" fill="#000000">HomePageComponent</text>
</g>
<!-- HomePageComponent&#45;&gt;AppModule -->
<g id="edge4" class="edge">
<title>HomePageComponent&#45;&gt;AppModule</title>
<path fill="none" stroke="#000000" d="M593,-190.1061C593,-209.3391 593,-237 593,-237 593,-237 372.9039,-237 372.9039,-237"/>
<polygon fill="#000000" stroke="#000000" points="372.9039,-233.5001 362.9039,-237 372.9039,-240.5001 372.9039,-233.5001"/>
</g>
<!-- AppComponent  -->
<g id="node9" class="node">
<title>AppComponent </title>
<polygon fill="#80b1d3" stroke="#000000" points="375.439,-320 266.561,-320 266.561,-284 375.439,-284 375.439,-320"/>
<text text-anchor="middle" x="321" y="-297.8" font-family="Times,serif" font-size="14.00" fill="#000000">AppComponent </text>
</g>
<!-- AppModule&#45;&gt;AppComponent  -->
<g id="edge8" class="edge">
<title>AppModule&#45;&gt;AppComponent </title>
<path fill="none" stroke="#000000" stroke-dasharray="1,5" d="M321,-255.1061C321,-255.1061 321,-273.991 321,-273.991"/>
<polygon fill="#000000" stroke="#000000" points="317.5001,-273.9909 321,-283.991 324.5001,-273.991 317.5001,-273.9909"/>
</g>
<!-- AuthentificationModule -->
<g id="node6" class="node">
<title>AuthentificationModule</title>
<polygon fill="#8dd3c7" stroke="#000000" points="237.8047,-190 234.8047,-194 213.8047,-194 210.8047,-190 86.1953,-190 86.1953,-154 237.8047,-154 237.8047,-190"/>
<text text-anchor="middle" x="162" y="-167.8" font-family="Times,serif" font-size="14.00" fill="#000000">AuthentificationModule</text>
</g>
<!-- AuthentificationModule&#45;&gt;AppModule -->
<g id="edge5" class="edge">
<title>AuthentificationModule&#45;&gt;AppModule</title>
<path fill="none" stroke="#000000" d="M162,-190.1061C162,-209.3391 162,-237 162,-237 162,-237 269.2246,-237 269.2246,-237"/>
<polygon fill="#000000" stroke="#000000" points="269.2247,-240.5001 279.2246,-237 269.2246,-233.5001 269.2247,-240.5001"/>
</g>
<!-- FormModule -->
<g id="node7" class="node">
<title>FormModule</title>
<polygon fill="#8dd3c7" stroke="#000000" points="237.8837,-122 234.8837,-126 213.8837,-126 210.8837,-122 148.1163,-122 148.1163,-86 237.8837,-86 237.8837,-122"/>
<text text-anchor="middle" x="193" y="-99.8" font-family="Times,serif" font-size="14.00" fill="#000000">FormModule</text>
</g>
<!-- FormModule&#45;&gt;AppModule -->
<g id="edge6" class="edge">
<title>FormModule&#45;&gt;AppModule</title>
<path fill="none" stroke="#000000" d="M237.988,-98C247.1339,-98 254.0203,-98 254.0203,-98 254.0203,-98 254.0203,-228 254.0203,-228 254.0203,-228 269.3425,-228 269.3425,-228"/>
<polygon fill="#000000" stroke="#000000" points="269.3425,-231.5001 279.3425,-228 269.3424,-224.5001 269.3425,-231.5001"/>
</g>
<!-- FormModule&#45;&gt;AuthentificationModule -->
<g id="edge12" class="edge">
<title>FormModule&#45;&gt;AuthentificationModule</title>
<path fill="none" stroke="#000000" d="M165.977,-122.2228C165.977,-122.2228 165.977,-143.7269 165.977,-143.7269"/>
<polygon fill="#000000" stroke="#000000" points="162.4771,-143.7269 165.977,-153.7269 169.4771,-143.727 162.4771,-143.7269"/>
</g>
<!-- MaterialModule -->
<g id="node8" class="node">
<title>MaterialModule</title>
<polygon fill="#8dd3c7" stroke="#000000" points="130.4706,-122 127.4706,-126 106.4706,-126 103.4706,-122 23.5294,-122 23.5294,-86 130.4706,-86 130.4706,-122"/>
<text text-anchor="middle" x="77" y="-99.8" font-family="Times,serif" font-size="14.00" fill="#000000">MaterialModule</text>
</g>
<!-- MaterialModule&#45;&gt;AppModule -->
<g id="edge7" class="edge">
<title>MaterialModule&#45;&gt;AppModule</title>
<path fill="none" stroke="#000000" d="M54.9313,-122.2733C54.9313,-160.6253 54.9313,-246 54.9312,-246 54.9312,-246 269.1341,-246 269.1341,-246"/>
<polygon fill="#000000" stroke="#000000" points="269.1341,-249.5001 279.1341,-246 269.134,-242.5001 269.1341,-249.5001"/>
</g>
<!-- MaterialModule&#45;&gt;AuthentificationModule -->
<g id="edge13" class="edge">
<title>MaterialModule&#45;&gt;AuthentificationModule</title>
<path fill="none" stroke="#000000" d="M108.4166,-122.2228C108.4166,-122.2228 108.4166,-143.7269 108.4166,-143.7269"/>
<polygon fill="#000000" stroke="#000000" points="104.9166,-143.7269 108.4166,-153.7269 111.9166,-143.727 104.9166,-143.7269"/>
</g>
<!-- AddUserComponent -->
<g id="node10" class="node">
<title>AddUserComponent</title>
<polygon fill="#ffffb3" stroke="#000000" points="1528.8655,-122 1397.1345,-122 1397.1345,-86 1528.8655,-86 1528.8655,-122"/>
<text text-anchor="middle" x="1463" y="-99.8" font-family="Times,serif" font-size="14.00" fill="#000000">AddUserComponent</text>
</g>
<!-- AddUserComponent&#45;&gt;AuthentificationModule -->
<g id="edge9" class="edge">
<title>AddUserComponent&#45;&gt;AuthentificationModule</title>
<path fill="none" stroke="#000000" d="M1463,-122.0555C1463,-133.439 1463,-146 1463,-146 1463,-146 219.7334,-146 219.7334,-146 219.7334,-146 219.7334,-146.7942 219.7334,-146.7942"/>
<polygon fill="#000000" stroke="#000000" points="216.2335,-143.9421 219.7334,-153.9421 223.2335,-143.9422 216.2335,-143.9421"/>
</g>
<!-- AuthentificationComponent -->
<g id="node11" class="node">
<title>AuthentificationComponent</title>
<polygon fill="#ffffb3" stroke="#000000" points="1379.587,-122 1206.413,-122 1206.413,-86 1379.587,-86 1379.587,-122"/>
<text text-anchor="middle" x="1293" y="-99.8" font-family="Times,serif" font-size="14.00" fill="#000000">AuthentificationComponent</text>
</g>
<!-- AuthentificationComponent&#45;&gt;AuthentificationModule -->
<g id="edge10" class="edge">
<title>AuthentificationComponent&#45;&gt;AuthentificationModule</title>
<path fill="none" stroke="#000000" d="M1293,-122.1944C1293,-130.2782 1293,-138 1293,-138 1293,-138 201.8146,-138 201.8146,-138 201.8146,-138 201.8146,-143.8056 201.8146,-143.8056"/>
<polygon fill="#000000" stroke="#000000" points="198.3147,-143.8055 201.8146,-153.8056 205.3147,-143.8056 198.3147,-143.8055"/>
</g>
<!-- LoginComponent -->
<g id="node12" class="node">
<title>LoginComponent</title>
<polygon fill="#ffffb3" stroke="#000000" points="1188.2758,-122 1073.7242,-122 1073.7242,-86 1188.2758,-86 1188.2758,-122"/>
<text text-anchor="middle" x="1131" y="-99.8" font-family="Times,serif" font-size="14.00" fill="#000000">LoginComponent</text>
</g>
<!-- LoginComponent&#45;&gt;AuthentificationModule -->
<g id="edge11" class="edge">
<title>LoginComponent&#45;&gt;AuthentificationModule</title>
<path fill="none" stroke="#000000" d="M1131,-122.0579C1131,-126.4945 1131,-130 1131,-130 1131,-130 183.8958,-130 183.8958,-130 183.8958,-130 183.8958,-143.9445 183.8958,-143.9445"/>
<polygon fill="#000000" stroke="#000000" points="180.3959,-143.9444 183.8958,-153.9445 187.3959,-143.9445 180.3959,-143.9444"/>
</g>
<!-- AuthentificationService -->
<g id="node13" class="node">
<title>AuthentificationService</title>
<ellipse fill="#fdb462" stroke="#000000" cx="947" cy="-104" rx="103.0655" ry="18"/>
<text text-anchor="middle" x="947" y="-99.8" font-family="Times,serif" font-size="14.00" fill="#000000">AuthentificationService</text>
</g>
<!-- AuthentificationService&#45;&gt;AuthentificationModule -->
<g id="edge14" class="edge">
<title>AuthentificationService&#45;&gt;AuthentificationModule</title>
<path fill="none" stroke="#000000" d="M849.5263,-110C656.9055,-110 245.9811,-110 245.9811,-110 245.9811,-110 245.9811,-172 245.9811,-172 245.9811,-172 245.1758,-172 245.1758,-172"/>
<polygon fill="#000000" stroke="#000000" points="247.9287,-168.5001 237.9286,-172 247.9286,-175.5001 247.9287,-168.5001"/>
</g>
</g>
</svg>
