<?xml version="1.0" encoding="UTF-8" standalone="no"?>
<!DOCTYPE svg PUBLIC "-//W3C//DTD SVG 1.1//EN"
 "http://www.w3.org/Graphics/SVG/1.1/DTD/svg11.dtd">
<!-- Generated by graphviz version 2.40.1 (20161225.0304)
 -->
<!-- Title: dependencies Pages: 1 -->
<svg width="2067pt" height="352pt"
 viewBox="0.00 0.00 2067.00 352.00" xmlns="http://www.w3.org/2000/svg" xmlns:xlink="http://www.w3.org/1999/xlink">
<g id="graph0" class="graph" transform="scale(1 1) rotate(0) translate(4 348)">
<title>dependencies</title>
<polygon fill="#ffffff" stroke="transparent" points="-4,4 -4,-348 2063,-348 2063,4 -4,4"/>
<text text-anchor="start" x="1008.5091" y="-42.4" font-family="sans-serif" font-weight="bold" font-size="14.00" fill="#000000">Legend</text>
<polygon fill="#ffffb3" stroke="transparent" points="795.5,-10 795.5,-30 815.5,-30 815.5,-10 795.5,-10"/>
<text text-anchor="start" x="819.129" y="-15.4" font-family="sans-serif" font-size="14.00" fill="#000000"> &#160;Declarations</text>
<polygon fill="#8dd3c7" stroke="transparent" points="908.5,-10 908.5,-30 928.5,-30 928.5,-10 908.5,-10"/>
<text text-anchor="start" x="932.2251" y="-15.4" font-family="sans-serif" font-size="14.00" fill="#000000"> &#160;Module</text>
<polygon fill="#80b1d3" stroke="transparent" points="994.5,-10 994.5,-30 1014.5,-30 1014.5,-10 994.5,-10"/>
<text text-anchor="start" x="1018.2812" y="-15.4" font-family="sans-serif" font-size="14.00" fill="#000000"> &#160;Bootstrap</text>
<polygon fill="#fdb462" stroke="transparent" points="1091.5,-10 1091.5,-30 1111.5,-30 1111.5,-10 1091.5,-10"/>
<text text-anchor="start" x="1115.1732" y="-15.4" font-family="sans-serif" font-size="14.00" fill="#000000"> &#160;Providers</text>
<polygon fill="#fb8072" stroke="transparent" points="1187.5,-10 1187.5,-30 1207.5,-30 1207.5,-10 1187.5,-10"/>
<text text-anchor="start" x="1211.2258" y="-15.4" font-family="sans-serif" font-size="14.00" fill="#000000"> &#160;Exports</text>
<g id="clust1" class="cluster">
<title>cluster_AppModule</title>
<polygon fill="none" stroke="#000000" stroke-dasharray="1,5" points="8,-70 8,-336 894,-336 894,-70 8,-70"/>
</g>
<g id="clust2" class="cluster">
<title>cluster_AppModule_declarations</title>
<polygon fill="none" stroke="#000000" points="328,-146 328,-198 886,-198 886,-146 328,-146"/>
</g>
<g id="clust7" class="cluster">
<title>cluster_AppModule_imports</title>
<polygon fill="none" stroke="#000000" points="48,-78 48,-198 320,-198 320,-78 48,-78"/>
</g>
<g id="clust9" class="cluster">
<title>cluster_AppModule_bootstrap</title>
<polygon fill="none" stroke="#000000" points="276,-276 276,-328 400,-328 400,-276 276,-276"/>
</g>
<g id="clust11" class="cluster">
<title>cluster_AuthentificationModule</title>
<polygon fill="none" stroke="#000000" stroke-dasharray="1,5" points="902,-70 902,-138 1619,-138 1619,-70 902,-70"/>
</g>
<g id="clust12" class="cluster">
<title>cluster_AuthentificationModule_declarations</title>
<polygon fill="none" stroke="#000000" points="1140,-78 1140,-130 1611,-130 1611,-78 1140,-78"/>
</g>
<g id="clust19" class="cluster">
<title>cluster_AuthentificationModule_providers</title>
<polygon fill="none" stroke="#000000" points="910,-78 910,-130 1132,-130 1132,-78 910,-78"/>
</g>
<g id="clust20" class="cluster">
<title>cluster_ChatModule</title>
<polygon fill="none" stroke="#000000" stroke-dasharray="1,5" points="1627,-70 1627,-138 2051,-138 2051,-70 1627,-70"/>
</g>
<g id="clust21" class="cluster">
<title>cluster_ChatModule_declarations</title>
<polygon fill="none" stroke="#000000" points="1635,-78 1635,-130 2043,-130 2043,-78 1635,-78"/>
</g>
<!-- AppComponent -->
<g id="node1" class="node">
<title>AppComponent</title>
<polygon fill="#ffffb3" stroke="#000000" points="877.9399,-190 772.0601,-190 772.0601,-154 877.9399,-154 877.9399,-190"/>
<text text-anchor="middle" x="825" y="-167.8" font-family="Times,serif" font-size="14.00" fill="#000000">AppComponent</text>
</g>
<!-- AppModule -->
<g id="node5" class="node">
<title>AppModule</title>
<polygon fill="#8dd3c7" stroke="#000000" points="379.6571,-255 376.6571,-259 355.6571,-259 352.6571,-255 296.3429,-255 296.3429,-219 379.6571,-219 379.6571,-255"/>
<text text-anchor="middle" x="338" y="-232.8" font-family="Times,serif" font-size="14.00" fill="#000000">AppModule</text>
</g>
<!-- AppComponent&#45;&gt;AppModule -->
<g id="edge1" class="edge">
<title>AppComponent&#45;&gt;AppModule</title>
<path fill="none" stroke="#000000" d="M825,-190.2921C825,-212.2057 825,-246 825,-246 825,-246 389.9428,-246 389.9428,-246"/>
<polygon fill="#000000" stroke="#000000" points="389.9429,-242.5001 379.9428,-246 389.9428,-249.5001 389.9429,-242.5001"/>
</g>
<!-- FooterComponent -->
<g id="node2" class="node">
<title>FooterComponent</title>
<polygon fill="#ffffb3" stroke="#000000" points="753.8809,-190 636.1191,-190 636.1191,-154 753.8809,-154 753.8809,-190"/>
<text text-anchor="middle" x="695" y="-167.8" font-family="Times,serif" font-size="14.00" fill="#000000">FooterComponent</text>
</g>
<!-- FooterComponent&#45;&gt;AppModule -->
<g id="edge2" class="edge">
<title>FooterComponent&#45;&gt;AppModule</title>
<path fill="none" stroke="#000000" d="M695,-190.1061C695,-209.3391 695,-237 695,-237 695,-237 390.0022,-237 390.0022,-237"/>
<polygon fill="#000000" stroke="#000000" points="390.0023,-233.5001 380.0022,-237 390.0022,-240.5001 390.0023,-233.5001"/>
</g>
<!-- HeaderComponent -->
<g id="node3" class="node">
<title>HeaderComponent</title>
<polygon fill="#ffffb3" stroke="#000000" points="617.7437,-190 496.2563,-190 496.2563,-154 617.7437,-154 617.7437,-190"/>
<text text-anchor="middle" x="557" y="-167.8" font-family="Times,serif" font-size="14.00" fill="#000000">HeaderComponent</text>
</g>
<!-- HeaderComponent&#45;&gt;AppModule -->
<g id="edge3" class="edge">
<title>HeaderComponent&#45;&gt;AppModule</title>
<path fill="none" stroke="#000000" d="M557,-190.027C557,-206.3976 557,-228 557,-228 557,-228 389.7077,-228 389.7077,-228"/>
<polygon fill="#000000" stroke="#000000" points="389.7077,-224.5001 379.7077,-228 389.7077,-231.5001 389.7077,-224.5001"/>
</g>
<!-- HomePageComponent -->
<g id="node4" class="node">
<title>HomePageComponent</title>
<polygon fill="#ffffb3" stroke="#000000" points="478.2562,-190 335.7438,-190 335.7438,-154 478.2562,-154 478.2562,-190"/>
<text text-anchor="middle" x="407" y="-167.8" font-family="Times,serif" font-size="14.00" fill="#000000">HomePageComponent</text>
</g>
<!-- HomePageComponent&#45;&gt;AppModule -->
<g id="edge4" class="edge">
<title>HomePageComponent&#45;&gt;AppModule</title>
<path fill="none" stroke="#000000" d="M357.7251,-190.1061C357.7251,-190.1061 357.7251,-208.991 357.7251,-208.991"/>
<polygon fill="#000000" stroke="#000000" points="354.2252,-208.9909 357.7251,-218.991 361.2252,-208.991 354.2252,-208.9909"/>
</g>
<!-- AppComponent  -->
<g id="node10" class="node">
<title>AppComponent </title>
<polygon fill="#80b1d3" stroke="#000000" points="392.439,-320 283.561,-320 283.561,-284 392.439,-284 392.439,-320"/>
<text text-anchor="middle" x="338" y="-297.8" font-family="Times,serif" font-size="14.00" fill="#000000">AppComponent </text>
</g>
<!-- AppModule&#45;&gt;AppComponent  -->
<g id="edge9" class="edge">
<title>AppModule&#45;&gt;AppComponent </title>
<path fill="none" stroke="#000000" stroke-dasharray="1,5" d="M338,-255.1061C338,-255.1061 338,-273.991 338,-273.991"/>
<polygon fill="#000000" stroke="#000000" points="334.5001,-273.9909 338,-283.991 341.5001,-273.991 334.5001,-273.9909"/>
</g>
<!-- AuthentificationModule -->
<g id="node6" class="node">
<title>AuthentificationModule</title>
<polygon fill="#8dd3c7" stroke="#000000" points="207.8047,-190 204.8047,-194 183.8047,-194 180.8047,-190 56.1953,-190 56.1953,-154 207.8047,-154 207.8047,-190"/>
<text text-anchor="middle" x="132" y="-167.8" font-family="Times,serif" font-size="14.00" fill="#000000">AuthentificationModule</text>
</g>
<!-- AuthentificationModule&#45;&gt;AppModule -->
<g id="edge5" class="edge">
<title>AuthentificationModule&#45;&gt;AppModule</title>
<path fill="none" stroke="#000000" d="M132,-190.1061C132,-209.3391 132,-237 132,-237 132,-237 286.3128,-237 286.3128,-237"/>
<polygon fill="#000000" stroke="#000000" points="286.3129,-240.5001 296.3128,-237 286.3128,-233.5001 286.3129,-240.5001"/>
</g>
<!-- ChatModule -->
<g id="node7" class="node">
<title>ChatModule</title>
<polygon fill="#8dd3c7" stroke="#000000" points="311.9916,-190 308.9916,-194 287.9916,-194 284.9916,-190 226.0084,-190 226.0084,-154 311.9916,-154 311.9916,-190"/>
<text text-anchor="middle" x="269" y="-167.8" font-family="Times,serif" font-size="14.00" fill="#000000">ChatModule</text>
</g>
<!-- ChatModule&#45;&gt;AppModule -->
<g id="edge6" class="edge">
<title>ChatModule&#45;&gt;AppModule</title>
<path fill="none" stroke="#000000" d="M304.0838,-190.1061C304.0838,-190.1061 304.0838,-208.991 304.0838,-208.991"/>
<polygon fill="#000000" stroke="#000000" points="300.5839,-208.9909 304.0838,-218.991 307.5839,-208.991 300.5839,-208.9909"/>
</g>
<!-- FormModule -->
<g id="node8" class="node">
<title>FormModule</title>
<polygon fill="#8dd3c7" stroke="#000000" points="145.8837,-122 142.8837,-126 121.8837,-126 118.8837,-122 56.1163,-122 56.1163,-86 145.8837,-86 145.8837,-122"/>
<text text-anchor="middle" x="101" y="-99.8" font-family="Times,serif" font-size="14.00" fill="#000000">FormModule</text>
</g>
<!-- FormModule&#45;&gt;AppModule -->
<g id="edge7" class="edge">
<title>FormModule&#45;&gt;AppModule</title>
<path fill="none" stroke="#000000" d="M116.0771,-122.037C116.0771,-135.2913 116.0771,-151 116.0771,-151 116.0771,-151 319.8712,-151 319.8712,-151 319.8712,-151 319.8712,-208.7616 319.8712,-208.7616"/>
<polygon fill="#000000" stroke="#000000" points="316.3713,-208.7616 319.8712,-218.7616 323.3713,-208.7616 316.3713,-208.7616"/>
</g>
<!-- FormModule&#45;&gt;AuthentificationModule -->
<g id="edge13" class="edge">
<title>FormModule&#45;&gt;AuthentificationModule</title>
<path fill="none" stroke="#000000" d="M86.2125,-122.2228C86.2125,-122.2228 86.2125,-143.7269 86.2125,-143.7269"/>
<polygon fill="#000000" stroke="#000000" points="82.7126,-143.7269 86.2125,-153.7269 89.7126,-143.727 82.7126,-143.7269"/>
</g>
<!-- MaterialModule -->
<g id="node9" class="node">
<title>MaterialModule</title>
<polygon fill="#8dd3c7" stroke="#000000" points="270.4706,-122 267.4706,-126 246.4706,-126 243.4706,-122 163.5294,-122 163.5294,-86 270.4706,-86 270.4706,-122"/>
<text text-anchor="middle" x="217" y="-99.8" font-family="Times,serif" font-size="14.00" fill="#000000">MaterialModule</text>
</g>
<!-- MaterialModule&#45;&gt;AppModule -->
<g id="edge8" class="edge">
<title>MaterialModule&#45;&gt;AppModule</title>
<path fill="none" stroke="#000000" d="M270.7512,-104C298.9679,-104 327.7466,-104 327.7466,-104 327.7466,-104 327.7466,-208.7858 327.7466,-208.7858"/>
<polygon fill="#000000" stroke="#000000" points="324.2467,-208.7858 327.7466,-218.7858 331.2467,-208.7858 324.2467,-208.7858"/>
</g>
<!-- MaterialModule&#45;&gt;AuthentificationModule -->
<g id="edge14" class="edge">
<title>MaterialModule&#45;&gt;AuthentificationModule</title>
<path fill="none" stroke="#000000" d="M170.871,-122.2228C170.871,-122.2228 170.871,-143.7269 170.871,-143.7269"/>
<polygon fill="#000000" stroke="#000000" points="167.371,-143.7269 170.871,-153.7269 174.371,-143.727 167.371,-143.7269"/>
</g>
<!-- MaterialModule&#45;&gt;ChatModule -->
<g id="edge19" class="edge">
<title>MaterialModule&#45;&gt;ChatModule</title>
<path fill="none" stroke="#000000" d="M248.2448,-122.2228C248.2448,-122.2228 248.2448,-143.7269 248.2448,-143.7269"/>
<polygon fill="#000000" stroke="#000000" points="244.7448,-143.7269 248.2448,-153.7269 251.7448,-143.727 244.7448,-143.7269"/>
</g>
<!-- AddUserComponent -->
<g id="node11" class="node">
<title>AddUserComponent</title>
<polygon fill="#ffffb3" stroke="#000000" points="1602.8655,-122 1471.1345,-122 1471.1345,-86 1602.8655,-86 1602.8655,-122"/>
<text text-anchor="middle" x="1537" y="-99.8" font-family="Times,serif" font-size="14.00" fill="#000000">AddUserComponent</text>
</g>
<!-- AddUserComponent&#45;&gt;AuthentificationModule -->
<g id="edge10" class="edge">
<title>AddUserComponent&#45;&gt;AuthentificationModule</title>
<path fill="none" stroke="#000000" d="M1537,-122.0449C1537,-129.749 1537,-137 1537,-137 1537,-137 200.296,-137 200.296,-137 200.296,-137 200.296,-143.68 200.296,-143.68"/>
<polygon fill="#000000" stroke="#000000" points="196.796,-143.6799 200.296,-153.68 203.796,-143.68 196.796,-143.6799"/>
</g>
<!-- AuthentificationComponent -->
<g id="node12" class="node">
<title>AuthentificationComponent</title>
<polygon fill="#ffffb3" stroke="#000000" points="1453.587,-122 1280.413,-122 1280.413,-86 1453.587,-86 1453.587,-122"/>
<text text-anchor="middle" x="1367" y="-99.8" font-family="Times,serif" font-size="14.00" fill="#000000">AuthentificationComponent</text>
</g>
<!-- AuthentificationComponent&#45;&gt;AuthentificationModule -->
<g id="edge11" class="edge">
<title>AuthentificationComponent&#45;&gt;AuthentificationModule</title>
<path fill="none" stroke="#000000" d="M1367,-122.2015C1367,-128.028 1367,-133 1367,-133 1367,-133 192.9397,-133 192.9397,-133 192.9397,-133 192.9397,-143.8701 192.9397,-143.8701"/>
<polygon fill="#000000" stroke="#000000" points="189.4398,-143.8701 192.9397,-153.8701 196.4398,-143.8701 189.4398,-143.8701"/>
</g>
<!-- LoginComponent -->
<g id="node13" class="node">
<title>LoginComponent</title>
<polygon fill="#ffffb3" stroke="#000000" points="1262.2758,-122 1147.7242,-122 1147.7242,-86 1262.2758,-86 1262.2758,-122"/>
<text text-anchor="middle" x="1205" y="-99.8" font-family="Times,serif" font-size="14.00" fill="#000000">LoginComponent</text>
</g>
<!-- LoginComponent&#45;&gt;AuthentificationModule -->
<g id="edge12" class="edge">
<title>LoginComponent&#45;&gt;AuthentificationModule</title>
<path fill="none" stroke="#000000" d="M1205,-122.0579C1205,-126.4945 1205,-130 1205,-130 1205,-130 185.5835,-130 185.5835,-130 185.5835,-130 185.5835,-143.9445 185.5835,-143.9445"/>
<polygon fill="#000000" stroke="#000000" points="182.0835,-143.9444 185.5835,-153.9445 189.0835,-143.9445 182.0835,-143.9444"/>
</g>
<!-- AuthentificationService -->
<g id="node14" class="node">
<title>AuthentificationService</title>
<ellipse fill="#fdb462" stroke="#000000" cx="1021" cy="-104" rx="103.0655" ry="18"/>
<text text-anchor="middle" x="1021" y="-99.8" font-family="Times,serif" font-size="14.00" fill="#000000">AuthentificationService</text>
</g>
<!-- AuthentificationService&#45;&gt;AuthentificationModule -->
<g id="edge15" class="edge">
<title>AuthentificationService&#45;&gt;AuthentificationModule</title>
<path fill="none" stroke="#000000" d="M1021,-122.1679C1021,-124.4478 1021,-126 1021,-126 1021,-126 178.2272,-126 178.2272,-126 178.2272,-126 178.2272,-143.8196 178.2272,-143.8196"/>
<polygon fill="#000000" stroke="#000000" points="174.7273,-143.8195 178.2272,-153.8196 181.7273,-143.8196 174.7273,-143.8195"/>
</g>
<!-- ChatComponent -->
<g id="node15" class="node">
<title>ChatComponent</title>
<polygon fill="#ffffb3" stroke="#000000" points="2034.7744,-122 1927.2256,-122 1927.2256,-86 2034.7744,-86 2034.7744,-122"/>
<text text-anchor="middle" x="1981" y="-99.8" font-family="Times,serif" font-size="14.00" fill="#000000">ChatComponent</text>
</g>
<!-- ChatComponent&#45;&gt;ChatModule -->
<g id="edge16" class="edge">
<title>ChatComponent&#45;&gt;ChatModule</title>
<path fill="none" stroke="#000000" d="M1981,-122.4854C1981,-134.1399 1981,-147 1981,-147 1981,-147 301.6182,-147 301.6182,-147 301.6182,-147 301.6182,-147.6831 301.6182,-147.6831"/>
<polygon fill="#000000" stroke="#000000" points="298.1183,-143.8313 301.6182,-153.8314 305.1183,-143.8314 298.1183,-143.8313"/>
</g>
<!-- ContentComponent -->
<g id="node16" class="node">
<title>ContentComponent</title>
<polygon fill="#ffffb3" stroke="#000000" points="1908.6652,-122 1783.3348,-122 1783.3348,-86 1908.6652,-86 1908.6652,-122"/>
<text text-anchor="middle" x="1846" y="-99.8" font-family="Times,serif" font-size="14.00" fill="#000000">ContentComponent</text>
</g>
<!-- ContentComponent&#45;&gt;ChatModule -->
<g id="edge17" class="edge">
<title>ContentComponent&#45;&gt;ChatModule</title>
<path fill="none" stroke="#000000" d="M1846,-122.1274C1846,-132.7109 1846,-144 1846,-144 1846,-144 291.2406,-144 291.2406,-144 291.2406,-144 291.2406,-144.9793 291.2406,-144.9793"/>
<polygon fill="#000000" stroke="#000000" points="287.7407,-143.793 291.2406,-153.793 294.7407,-143.7931 287.7407,-143.793"/>
</g>
<!-- NavbarComponent -->
<g id="node17" class="node">
<title>NavbarComponent</title>
<polygon fill="#ffffb3" stroke="#000000" points="1765.0297,-122 1642.9703,-122 1642.9703,-86 1765.0297,-86 1765.0297,-122"/>
<text text-anchor="middle" x="1704" y="-99.8" font-family="Times,serif" font-size="14.00" fill="#000000">NavbarComponent</text>
</g>
<!-- NavbarComponent&#45;&gt;ChatModule -->
<g id="edge18" class="edge">
<title>NavbarComponent&#45;&gt;ChatModule</title>
<path fill="none" stroke="#000000" d="M1704,-122.4218C1704,-131.2791 1704,-140 1704,-140 1704,-140 280.8629,-140 280.8629,-140 280.8629,-140 280.8629,-143.7566 280.8629,-143.7566"/>
<polygon fill="#000000" stroke="#000000" points="277.363,-143.7566 280.8629,-153.7566 284.363,-143.7566 277.363,-143.7566"/>
</g>
</g>
</svg>
